<svg width="118" height="45" viewBox="0 0 118 45" fill="none" xmlns="http://www.w3.org/2000/svg">
<path d="M51.0476 31C49.8228 31 48.7595 30.7358 47.8579 30.2073C46.9563 29.6788 46.2503 28.9357 45.74 27.9778C45.2467 27.0035 45 25.864 45 24.5593C45 23.2382 45.2552 22.0821 45.7655 21.0913C46.2759 20.0839 46.9989 19.2994 47.9345 18.7379C48.8871 18.1764 50.0099 17.8957 51.3028 17.8957C52.1023 17.8957 52.8423 18.0361 53.5228 18.3168C54.2202 18.5976 54.7561 18.9691 55.1304 19.4316V12H59.06V30.678H55.36L55.1559 29.0926C54.8156 29.6541 54.2713 30.1165 53.5228 30.4798C52.7913 30.8266 51.9662 31 51.0476 31ZM51.9917 27.5072C52.6041 27.5072 53.14 27.3833 53.5993 27.1356C54.0756 26.8714 54.4414 26.508 54.6966 26.0456C54.9687 25.5667 55.1048 25.0217 55.1048 24.4107C55.1048 23.7831 54.9687 23.2382 54.6966 22.7758C54.4414 22.3133 54.0756 21.9583 53.5993 21.7106C53.14 21.4463 52.6041 21.3142 51.9917 21.3142C51.3793 21.3142 50.8435 21.4463 50.3841 21.7106C49.9248 21.9748 49.5676 22.3381 49.3124 22.8005C49.0743 23.2629 48.9552 23.7997 48.9552 24.4107C48.9552 25.0217 49.0743 25.5585 49.3124 26.0209C49.5676 26.4833 49.9248 26.8466 50.3841 27.1108C50.8435 27.3751 51.3793 27.5072 51.9917 27.5072Z" fill="black"/>
<path d="M67.931 31C66.6552 31 65.5154 30.7193 64.5117 30.1578C63.5251 29.5963 62.7425 28.8283 62.1641 27.854C61.6028 26.8631 61.3221 25.7319 61.3221 24.4602C61.3221 23.1721 61.5943 22.0409 62.1386 21.0665C62.7 20.0756 63.474 19.2994 64.4607 18.7379C65.4474 18.1764 66.5786 17.8957 67.8545 17.8957C69.1984 17.8957 70.3552 18.1682 71.3248 18.7132C72.2945 19.2416 73.043 20.0013 73.5704 20.9922C74.0977 21.9665 74.3614 23.1308 74.3614 24.485V25.4511L63.389 25.5007L63.44 23.1473H70.4573C70.4573 22.4867 70.2276 21.9665 69.7683 21.5867C69.309 21.1904 68.6796 20.9922 67.88 20.9922C67.2166 20.9922 66.6722 21.116 66.2469 21.3638C65.8386 21.6115 65.5324 21.9996 65.3283 22.528C65.1241 23.04 65.0221 23.7006 65.0221 24.5098C65.0221 25.6658 65.2602 26.5246 65.7366 27.0861C66.2299 27.631 66.9869 27.9035 68.0076 27.9035C68.7561 27.9035 69.377 27.7797 69.8704 27.5319C70.3637 27.2842 70.6784 26.9374 70.8145 26.4915H74.4124C74.1913 27.8622 73.4938 28.9605 72.32 29.7862C71.1462 30.5954 69.6832 31 67.931 31Z" fill="black"/>
<path d="M80.6181 30.678H76.6885V12H80.6181V30.678Z" fill="black"/>
<path d="M87.4958 30.678H83.5661V18.292H87.2406L87.6744 20.4224L87.2662 19.9765C87.5213 19.4811 87.9806 19.0104 88.6441 18.5645C89.3075 18.1186 90.1666 17.8957 91.2213 17.8957C92.3441 17.8957 93.2457 18.1682 93.9262 18.7132C94.6066 19.2581 95.1085 19.9683 95.4317 20.8435H94.8193C95.0234 19.9683 95.5167 19.2581 96.2993 18.7132C97.0818 18.1682 98.0174 17.8957 99.1062 17.8957C100.756 17.8957 101.99 18.3251 102.806 19.1838C103.623 20.0261 104.031 21.1573 104.031 22.5776V30.678H100.101V23.6428C100.101 22.8666 99.9057 22.2886 99.5144 21.9087C99.1402 21.5289 98.6383 21.339 98.0089 21.339C97.6347 21.339 97.2774 21.4216 96.9372 21.5867C96.597 21.7353 96.3163 22.0078 96.0951 22.4042C95.874 22.784 95.7634 23.329 95.7634 24.0391V30.678H91.8337V23.6428C91.8337 22.8666 91.6466 22.2968 91.2724 21.9335C90.8981 21.5537 90.3963 21.3638 89.7668 21.3638C89.3926 21.3638 89.0268 21.4463 88.6696 21.6115C88.3294 21.7601 88.0487 22.0326 87.8275 22.4289C87.6064 22.8088 87.4958 23.3455 87.4958 24.0391V30.678Z" fill="black"/>
<path d="M106.841 30.678V18.292H110.77V30.678H106.841ZM108.78 16.3598C108.151 16.3598 107.615 16.1534 107.172 15.7405C106.747 15.3112 106.534 14.791 106.534 14.1799C106.534 13.5689 106.747 13.0569 107.172 12.6441C107.615 12.2312 108.151 12.0248 108.78 12.0248C109.392 12.0248 109.911 12.2312 110.337 12.6441C110.779 13.0569 111 13.5689 111 14.1799C111 14.791 110.779 15.3112 110.337 15.7405C109.911 16.1534 109.392 16.3598 108.78 16.3598Z" fill="black"/>
<g clip-path="url(#clip0_382_3384)">
<path fill-rule="evenodd" clip-rule="evenodd" d="M25.75 25.75L26.9963 27.175C27.1136 27.3093 27.2583 27.4169 27.4206 27.4906C27.583 27.5643 27.7592 27.6025 27.9375 27.6025C28.1158 27.6025 28.292 27.5643 28.4544 27.4906C28.6167 27.4169 28.7614 27.3093 28.8787 27.175L30.125 25.75H33.25C32.8975 27.5124 31.9452 29.0982 30.5553 30.2377C29.1654 31.3772 27.4236 31.9999 25.6263 32H18.3737C16.5764 31.9999 14.8346 31.3772 13.4447 30.2377C12.0548 29.0982 11.1025 27.5124 10.75 25.75H25.75Z" fill="#212121"/>
<path fill-rule="evenodd" clip-rule="evenodd" d="M33.25 18.25H10.75C11.1025 16.4876 12.0548 14.9018 13.4447 13.7623C14.8346 12.6228 16.5764 12.0001 18.3737 12H25.6263C27.4236 12.0001 29.1654 12.6228 30.5553 13.7623C31.9452 14.9018 32.8975 16.4876 33.25 18.25Z" fill="#212121"/>
<path opacity="0.3" d="M33.25 20.75H10.75C10.0596 20.75 9.5 21.3096 9.5 22C9.5 22.6904 10.0596 23.25 10.75 23.25H33.25C33.9404 23.25 34.5 22.6904 34.5 22C34.5 21.3096 33.9404 20.75 33.25 20.75Z" fill="#212121"/>
</g>
<defs>
<clipPath id="clip0_382_3384">
<rect width="30" height="30" fill="white" transform="translate(7 7)"/>
</clipPath>
</defs>
</svg>
